<?xml version="1.0" encoding="UTF-8" standalone="no"?>
<svg width="92px" height="87px" viewBox="0 0 92 87" version="1.1" xmlns="http://www.w3.org/2000/svg" xmlns:xlink="http://www.w3.org/1999/xlink">
    <!-- Generator: Sketch 40.2 (33826) - http://www.bohemiancoding.com/sketch -->
    <title>Group</title>
    <desc>Created with Sketch.</desc>
    <defs></defs>
    <g id="Page-1" stroke="none" stroke-width="1" fill="none" fill-rule="evenodd">
        <g id="Tablet-Portrait-Copy-10" transform="translate(-467.000000, -502.000000)" fill="#000000">
            <g id="Group" transform="translate(463.000000, 501.000000)">
                <path d="M16,1.6299 C14.7376872,1.63002431 13.714412,2.63731081 13.7142857,3.8799 L13.7142857,42.1299 L11.419643,42.1299 C10.1573302,42.1300244 9.13405505,43.1373108 9.13392869,44.3799 L9.13392869,57.862323 C9.13405505,59.1049122 10.1573302,60.1121986 11.419643,60.112323 L18.1874999,60.112323 L48,60.112323 L48,64.6299 L40.9374994,64.6299 C39.6751866,64.6300244 38.6519115,65.6373108 38.6517851,66.8799 L38.6517851,73.6299 L4.37499977,73.6299 L4.37499977,78.1299 L38.6517851,78.1299 L38.6517851,84.8799 C38.6519115,86.1224892 39.6751866,87.1297756 40.9374994,87.1299 L59.2232137,87.1299 C60.4855265,87.1297756 61.5088016,86.1224892 61.508928,84.8799 L61.508928,78.1299 L95.8035703,78.1299 L95.8035703,73.6299 L61.508928,73.6299 L61.508928,66.8799 C61.5088016,65.6373108 60.4855265,64.6300244 59.2232137,64.6299 L52.5714286,64.6299 L52.5714286,60.112323 L82.3839269,60.112323 L89.1517851,60.112323 C90.4140979,60.1121986 91.4373731,59.1049122 91.4374994,57.862323 L91.4374994,44.3799 C91.4373731,43.1373108 90.4140979,42.1300244 89.1517851,42.1299 L86.8571429,42.1299 L86.8571429,3.8799 C86.8570166,2.63731081 85.8337414,1.63002431 84.5714286,1.6299 L16,1.6299 L16,1.6299 Z M18.2857143,6.1299 L82.2857143,6.1299 L82.2857143,42.1299 L18.2857143,42.1299 L18.2857143,6.1299 L18.2857143,6.1299 Z M13.7053573,46.6299 L18.1874999,46.6299 L36.5357166,46.6299 L41,46.6299 C40.7994905,47.3138053 40.9395305,48.0507717 41.3776109,48.6170931 C41.8156913,49.1834145 42.5001478,49.5123028 43.2232137,49.503924 L57.3482149,49.503924 C58.0728426,49.5151187 58.7599374,49.1874107 59.2001012,48.6206718 C59.6402651,48.053933 59.781349,47.3153083 59.5803566,46.6299 L82.3839269,46.6299 L84.5714286,46.6299 L86.8660709,46.6299 L86.8660709,55.612323 L82.3839269,55.612323 L18.1874999,55.612323 L13.7053573,55.612323 L13.7053573,46.6299 L13.7053573,46.6299 Z M43.2232137,69.1299 L56.9374994,69.1299 L56.9374994,82.6299 L43.2232137,82.6299 L43.2232137,69.1299 L43.2232137,69.1299 Z" id="Shape"></path>
            </g>
        </g>
    </g>
</svg>