<?xml version="1.0" encoding="UTF-8" standalone="no"?>
<svg width="80px" height="80px" viewBox="0 0 80 80" version="1.1" xmlns="http://www.w3.org/2000/svg" xmlns:xlink="http://www.w3.org/1999/xlink">
    <!-- Generator: Sketch 40.2 (33826) - http://www.bohemiancoding.com/sketch -->
    <title>Group</title>
    <desc>Created with Sketch.</desc>
    <defs></defs>
    <g id="Page-1" stroke="none" stroke-width="1" fill="none" fill-rule="evenodd">
        <g id="Tablet-Portrait-Copy-10" transform="translate(-572.000000, -316.000000)" fill="#000000">
            <g id="Group" transform="translate(572.000000, 316.000000)">
                <path d="M39.5604396,0.3184 C17.7430505,0.3184 0,18.061433 0,39.8788396 C0,61.6962462 17.7430505,79.4392791 39.5604396,79.4392791 C53.8110171,79.4392791 66.4938602,71.9813011 73.4615385,60.6205978 C74.2260735,59.3765474 73.838174,57.7483208 72.5948455,56.9826124 C71.3515169,56.2169039 69.7229251,56.603267 68.956044,57.8458725 C62.9396554,67.6555429 51.9647859,74.1645538 39.5604396,74.1645538 C20.5937231,74.1645538 5.27472527,58.8455209 5.27472527,39.8788396 C5.27472527,20.9121055 20.5937231,5.59312527 39.5604396,5.59312527 C50.9594057,5.59312527 61.0429749,11.1538119 67.2802198,19.6865319 L61.3736264,17.9832352 C60.4657142,17.7279664 59.490585,17.9764789 58.8155919,18.6351525 C58.1405988,19.2938261 57.8682997,20.2625823 58.1012759,21.1764689 C58.3342521,22.0903555 59.0371054,22.8105172 59.9450549,23.0656527 L72.2527473,26.5821363 C73.6478502,26.9700508 75.0948234,26.1607267 75.4945055,24.7689495 L79.010989,12.4612571 C79.2596865,11.6469318 79.0999874,10.7626353 78.5821639,10.0867395 C78.0643405,9.41084365 77.2520879,9.0264873 76.4010989,9.05466374 C75.24691,9.09934978 74.2560599,9.8898033 73.956044,11.0052132 L72.1428571,17.351367 C64.9872053,7.04766857 53.0288492,0.3184 39.5604396,0.3184 L39.5604396,0.3184 Z M39.532967,12.5711473 C38.828669,12.5784016 38.1565274,12.8670422 37.6662879,13.3727629 C37.1760484,13.8784837 36.9084378,14.5592717 36.9230769,15.2634549 L36.9230769,39.8788396 C36.9317282,40.8687987 37.4939975,41.7705514 38.3791209,42.2140044 L55.9615385,51.0052132 C56.809975,51.5204996 57.8758689,51.5158028 58.7197314,50.9930593 C59.563594,50.4703158 60.042507,49.5180584 59.9590055,48.5289213 C59.875504,47.5397842 59.2437299,46.6812894 58.3241758,46.307411 L42.1978022,38.2304879 L42.1978022,15.2634549 C42.2126411,14.5497427 41.9375537,13.8604945 41.4353691,13.3531328 C40.9331845,12.845771 40.2467939,12.563629 39.532967,12.5711473 L39.532967,12.5711473 Z" id="Shape"></path>
            </g>
        </g>
    </g>
</svg>