<?xml version="1.0" encoding="UTF-8" standalone="no"?>
<svg width="96px" height="86px" viewBox="0 0 96 86" version="1.1" xmlns="http://www.w3.org/2000/svg" xmlns:xlink="http://www.w3.org/1999/xlink">
    <!-- Generator: Sketch 40.2 (33826) - http://www.bohemiancoding.com/sketch -->
    <title>Group</title>
    <desc>Created with Sketch.</desc>
    <defs></defs>
    <g id="Page-1" stroke="none" stroke-width="1" fill="none" fill-rule="evenodd">
        <g id="Tablet-Portrait-Copy-10" transform="translate(-663.000000, -501.000000)" fill="#000000">
            <g id="Group" transform="translate(663.000000, 501.000000)">
                <path d="M9.81818182,0.395105455 C4.421592,0.395105455 0,4.81670182 0,10.2132873 C0,18.64836 4.46339782,26.9398145 10.7727273,33.4973782 C16.8011727,39.7630058 24.5592905,44.4858524 32.3863636,45.9746509 C33.6741938,47.6286055 35.0741356,49.1497931 36.6136364,50.5087418 L30.2386364,63.6678327 L24,63.6678327 C23.9318557,63.6646353 23.8635989,63.6646353 23.7954545,63.6678327 C22.6710424,63.7738053 21.813312,64.7202665 21.8181818,65.8496509 L21.8181818,83.3041964 C21.8183023,84.5091314 22.795065,85.4858941 24,85.4860145 L72,85.4860145 C73.204935,85.4858941 74.1816977,84.5091314 74.1818182,83.3041964 L74.1818182,65.8496509 C74.1816977,64.6447159 73.204935,63.6679532 72,63.6678327 L65.7613636,63.6678327 L59.3863636,50.5087418 C60.9258644,49.1497931 62.3258062,47.6286055 63.6136364,45.9746509 C71.4407095,44.4858524 79.1988273,39.7630058 85.2272727,33.4973782 C91.5366022,26.9398145 96,18.64836 96,10.2132873 C96,4.81670182 91.578408,0.395105455 86.1818182,0.395105455 C80.8201451,0.395105455 75.7919738,2.60751382 71.4545455,4.75874182 L48,4.75874182 L24.5454545,4.75874182 C20.2080262,2.60751382 15.1798549,0.395105455 9.81818182,0.395105455 L9.81818182,0.395105455 Z M9.81818182,4.75874182 C13.6725971,4.75874182 17.8580291,6.4269 21.8181818,8.33828727 C21.959988,20.7744665 24.1775662,31.8833629 28.7727273,40.4519236 C23.4813131,38.4906796 18.1803076,34.9025542 13.9090909,30.4632873 C8.17802945,24.5067382 4.36363636,17.0772327 4.36363636,10.2132873 C4.36363636,7.17498545 6.77987782,4.75874182 9.81818182,4.75874182 L9.81818182,4.75874182 Z M86.1818182,4.75874182 C89.2201222,4.75874182 91.6363636,7.17498545 91.6363636,10.2132873 C91.6363636,17.0772327 87.8219705,24.5067382 82.0909091,30.4632873 C77.8196924,34.9025542 72.5186869,38.4906796 67.2272727,40.4519236 C71.8224349,31.8833629 74.0400153,20.7744665 74.1818182,8.33828727 C78.1419709,6.4269 82.3274029,4.75874182 86.1818182,4.75874182 L86.1818182,4.75874182 Z M26.3181818,9.12237818 L48,9.12237818 L69.6818182,9.12237818 C69.3159622,26.8670945 64.5303513,41.0985055 55.3636364,48.2928327 C54.5923636,48.9018873 54.3235996,50.0664327 54.75,50.9519236 L60.8863636,63.6678327 L35.1136364,63.6678327 L41.25,50.9519236 C41.6764004,50.0664327 41.4076364,48.9018873 40.6363636,48.2928327 C31.4696498,41.0985055 26.6840411,26.8670945 26.3181818,9.12237818 L26.3181818,9.12237818 Z M26.1818182,68.0314691 L69.8181818,68.0314691 L69.8181818,81.1223782 L26.1818182,81.1223782 L26.1818182,68.0314691 L26.1818182,68.0314691 Z" id="Shape"></path>
            </g>
        </g>
    </g>
</svg>