<?xml version="1.0" encoding="UTF-8" standalone="no"?>
<svg width="90px" height="90px" viewBox="0 0 90 90" version="1.1" xmlns="http://www.w3.org/2000/svg" xmlns:xlink="http://www.w3.org/1999/xlink">
    <!-- Generator: Sketch 40.2 (33826) - http://www.bohemiancoding.com/sketch -->
    <title>Group 6</title>
    <desc>Created with Sketch.</desc>
    <defs></defs>
    <g id="Page-1" stroke="none" stroke-width="1" fill="none" fill-rule="evenodd">
        <g id="Tablet-Portrait-Copy-10" transform="translate(-373.000000, -316.000000)" fill="#000000">
            <g id="Group-6" transform="translate(373.000000, 316.000000)">
                <circle id="Oval" cx="57.5" cy="40" r="2.5"></circle>
                <circle id="Oval" cx="57.5" cy="12.5" r="2.5"></circle>
                <path d="M70.5,50 C71.7,48.7 72.5,46.9 72.5,45 L72.5,35 C72.5,30.9 69.1,27.5 65,27.5 L65,25 C69.1,25 72.5,21.6 72.5,17.5 L72.5,7.5 C72.5,3.4 69.1,0 65,0 L7.5,0 C3.4,0 0,3.4 0,7.5 L0,17.5 C0,21.6 3.4,25 7.5,25 L7.5,27.5 C3.4,27.5 0,30.9 0,35 L0,45 C0,49.1 3.4,52.5 7.5,52.5 L7.5,55 C3.4,55 0,58.4 0,62.5 L0,72.5 C0,76.6 3.4,80 7.5,80 L52.7,80 C56.2,86 62.6,90 70,90 C81,90 90,81 90,70 C90,59.2 81.3,50.3 70.5,50 L70.5,50 Z M5,17.5 L5,7.5 C5,6.1 6.1,5 7.5,5 L65,5 C66.4,5 67.5,6.1 67.5,7.5 L67.5,17.5 C67.5,18.9 66.4,20 65,20 L7.5,20 C6.1,20 5,18.9 5,17.5 L5,17.5 Z M60,25 L60,27.5 L12.5,27.5 L12.5,25 L60,25 L60,25 Z M5,45 L5,35 C5,33.6 6.1,32.5 7.5,32.5 L65,32.5 C66.4,32.5 67.5,33.6 67.5,35 L67.5,45 C67.5,46.4 66.4,47.5 65,47.5 L7.5,47.5 C6.1,47.5 5,46.4 5,45 L5,45 Z M60,52.5 L60,52.7 C58.9,53.4 57.8,54.1 56.8,55 L12.5,55 L12.5,52.5 L60,52.5 L60,52.5 Z M50,70 C50,71.7 50.2,73.4 50.7,75 L7.5,75 C6.1,75 5,73.9 5,72.5 L5,62.5 C5,61.1 6.1,60 7.5,60 L52.7,60 C51,62.9 50,66.4 50,70 L50,70 Z M70,85 C61.7,85 55,78.3 55,70 C55,61.7 61.7,55 70,55 C78.3,55 85,61.7 85,70 C85,78.3 78.3,85 70,85 L70,85 Z" id="Shape"></path>
                <circle id="Oval" cx="70" cy="70" r="2.5"></circle>
                <circle id="Oval" cx="62.5" cy="70" r="2.5"></circle>
                <circle id="Oval" cx="77.5" cy="70" r="2.5"></circle>
            </g>
        </g>
    </g>
</svg>