<?xml version="1.0" encoding="UTF-8" standalone="no"?>
<svg width="64px" height="24px" viewBox="0 0 64 24" version="1.1" xmlns="http://www.w3.org/2000/svg" xmlns:xlink="http://www.w3.org/1999/xlink">
    <!-- Generator: Sketch 40.2 (33826) - http://www.bohemiancoding.com/sketch -->
    <title>Group 2</title>
    <desc>Created with Sketch.</desc>
    <defs></defs>
    <g id="Page-1" stroke="none" stroke-width="1" fill="none" fill-rule="evenodd">
        <g id="Tablet-Portrait" transform="translate(-71.000000, -521.000000)" fill="#050405">
            <g id="Group-2" transform="translate(71.000000, 521.000000)">
                <path d="M41.4120799,7.4992682 L41.4116677,7.4992682 L41.4116677,7.49966013 C41.4116677,8.15828827 40.8500509,8.69267653 40.1569436,8.69267653 C39.4640424,8.69267653 38.9022194,8.15828827 38.9022194,7.49966013 L38.9022194,7.4992682 L38.9022194,5.8302602 C38.9022194,5.17124013 39.4640424,4.6372438 40.1569436,4.6372438 C40.8500509,4.6372438 41.4116677,5.17124013 41.4116677,5.8302602 L41.4120799,5.8302602 L41.4120799,7.4992682 Z M25.0979867,7.4992682 L25.0975745,7.4992682 L25.0975745,7.49966013 C25.0975745,8.15828827 24.5359576,8.69267653 23.8430564,8.69267653 C23.1499491,8.69267653 22.5883323,8.15828827 22.5883323,7.49966013 L22.5883323,7.4992682 L22.5883323,5.8302602 C22.5883323,5.17124013 23.1499491,4.6372438 23.8430564,4.6372438 C24.5359576,4.6372438 25.0975745,5.17124013 25.0975745,5.8302602 L25.0979867,5.8302602 L25.0979867,7.4992682 Z M61.4903456,13.1265118 C60.1043371,13.1265118 58.9806912,14.1948964 58.9806912,15.5127406 L58.9806912,17.6399077 L58.980279,17.6399077 C58.980279,18.6283398 58.1379568,19.4292363 57.0983989,19.4292363 C56.058841,19.4292363 55.2161066,18.6283398 55.2161066,17.6399077 L55.2161066,11.3373791 L55.2161066,11.3367912 L55.2161066,11.3356155 L55.2156944,2.38779647 C55.2156944,2.38720858 55.2161066,2.38681666 55.2161066,2.38622877 C55.2161066,1.0683846 54.0924607,0 52.7064522,0 C51.3204436,0 50.1967978,1.0683846 50.1967978,2.38622877 L50.1967978,17.6397117 L50.1965917,17.6397117 C50.1965917,18.6281438 49.3542694,19.4288444 48.3147115,19.4288444 C47.2751536,19.4288444 46.4322131,18.6281438 46.4322131,17.637948 L46.4315948,5.96410222 L46.4295338,5.96566991 C46.4291216,2.67154939 43.6204192,0.00156769567 40.1561192,0.00156769567 C36.6916131,0.00156769567 33.8829106,2.67154939 33.8820862,5.96566991 L33.8824984,17.6397117 L33.8820862,17.6397117 C33.8820862,18.6281438 33.039764,19.4288444 32.0002061,19.4288444 C30.9606482,19.4288444 30.1179138,18.6281438 30.1179138,17.6397117 L30.1179138,5.96566991 L30.116265,5.96566991 C30.1154406,2.67154939 27.3071503,0.00156769567 23.8424381,0.00156769567 C20.3779321,0.00156769567 17.5692296,2.67154939 17.5688174,5.96566991 L17.5692296,17.6397117 L17.5688174,17.6397117 C17.5688174,18.6281438 16.7262891,19.4288444 15.6869373,19.4288444 C14.6473793,19.4288444 13.804851,18.6281438 13.8046449,17.6397117 L13.8038205,2.3891682 L13.8038205,2.38760051 C13.8038205,1.06975633 12.6805869,0.00156769567 11.2945783,0.00156769567 C9.90856981,0.00156769567 8.78492394,1.06975633 8.78492394,2.38760051 L8.78492394,2.38779647 L8.78430564,2.38779647 L8.78430564,7.16476114 L8.78409955,7.16476114 C8.78162637,8.1514296 7.94012855,8.95017055 6.90221942,8.95017055 C5.86410418,8.95017055 5.02260637,8.1514296 5.02013319,7.16476114 L5.01992709,7.16476114 L5.01992709,7.16378133 L5.01992709,7.16044998 L5.01992709,7.15711862 L5.01992709,2.38779647 L5.0188966,2.38779647 C5.01662953,1.07191192 3.89422024,0.00548693485 2.5094483,0.00548693485 C1.12364587,0.00548693485 0.000206097922,1.07367557 0.000206097922,2.39151975 L0,2.39151975 L0,6.56394177 C0.000412195845,10.1874744 3.09002615,13.1249441 6.90118893,13.1249441 C7.55451934,13.1249441 8.18579728,13.0367612 8.78492394,12.8752886 L8.78492394,17.3036369 C8.78492394,20.9275614 11.8745379,23.8654231 15.6861129,23.8654231 C19.4818183,23.8654231 22.5607152,20.9516648 22.5860652,17.3483163 C22.5862713,17.3398899 22.5870957,14.8012027 22.5873018,13.1265118 L22.5883323,13.1265118 C22.5893628,12.4684716 23.1507735,11.9348671 23.8430564,11.9348671 C24.5353394,11.9348671 25.096544,12.4684716 25.0975745,13.1265118 L25.0983989,13.1265118 C25.0983989,14.7865056 25.0979867,17.2991298 25.0979867,17.3036369 C25.0979867,20.9275614 28.1878067,23.8654231 31.9991756,23.8654231 C35.794881,23.8654231 38.8735718,20.9516648 38.899334,17.3483163 C38.899334,17.3398899 38.8999523,14.8012027 38.9007767,13.1265118 L38.9022194,13.1265118 C38.9030438,12.4684716 39.4642485,11.9348671 40.1567375,11.9348671 C40.8490204,11.9348671 41.410225,12.4684716 41.4114616,13.1265118 L41.4126982,13.1265118 C41.4126982,14.7865056 41.412286,17.2991298 41.412286,17.3036369 C41.412286,20.9275614 44.5023122,23.8654231 48.3134749,23.8654231 C49.9822498,23.8654231 51.5117025,23.3018365 52.7048034,22.3647464 C53.8983164,23.3020325 55.4283874,23.8654231 57.0973684,23.8654231 C60.8930738,23.8654231 63.9719707,20.9518607 63.9975268,17.3485122 C63.997939,17.334011 63.9995878,15.5143083 63.9995878,15.5143083 C63.9995878,15.5137204 64,15.5131325 64,15.5127406 C64,14.1948964 62.8763541,13.1265118 61.4903456,13.1265118 L61.4903456,13.1265118 Z" id="Fill-1-Copy"></path>
            </g>
        </g>
    </g>
</svg>