<?xml version="1.0" encoding="UTF-8" standalone="no"?>
<svg width="231px" height="184px" viewBox="0 0 231 184" version="1.1" xmlns="http://www.w3.org/2000/svg" xmlns:xlink="http://www.w3.org/1999/xlink">
    <!-- Generator: Sketch 40.2 (33826) - http://www.bohemiancoding.com/sketch -->
    <title>logo</title>
    <desc>Created with Sketch.</desc>
    <defs></defs>
    <g id="Page-1" stroke="none" stroke-width="1" fill="none" fill-rule="evenodd">
        <g id="Tablet-Portrait-Copy" transform="translate(-250.000000, -345.000000)">
            <g id="logo" transform="translate(219.000000, 316.000000)">
                <g id="svg5380">
                    <g id="layer1" transform="translate(0.107788, 0.018088)">
                        <path d="M37.5268168,101.076132 L43.1505451,101.076132 C44.6653166,101.076132 45.9340471,100.810572 46.9565002,100.279687 C47.9789533,99.7488023 48.7742733,99.1040721 49.3424604,98.3454964 C49.9484636,97.5869206 50.3649135,96.7717772 50.5922828,95.8995926 C50.8574683,95.0271714 50.990061,94.2498975 50.990061,93.5672977 C50.990061,92.8468283 50.8574683,92.0693178 50.5922828,91.2350028 C50.3651498,90.3625816 49.9484636,89.5663729 49.3424604,88.8456668 C48.7364572,88.0870911 47.9222291,87.4612957 46.899776,86.9682806 C45.9151391,86.4752656 44.6842247,86.2286397 43.2072692,86.2286397 L37.5265805,86.2286397 L37.5265805,101.076132 L37.5268168,101.076132 L37.5268168,101.076132 Z M31.277941,121.669155 L31.277941,80.426068 L42.5256339,80.426068 C44.6842247,80.426068 46.6534986,80.7105635 48.4334557,81.2793177 C50.2512288,81.8483087 51.8040528,82.7015585 53.091455,83.8393037 C54.4169097,84.9389426 55.4395991,86.3043789 56.1590506,87.9351392 C56.8785021,89.5280299 57.2382278,91.3673098 57.2382278,93.4532155 C57.2382278,95.0839758 56.9919504,96.7147361 56.4996319,98.3452597 C56.0073134,99.9379137 55.2119934,101.379089 54.1136717,102.668786 C53.0155864,103.920377 51.5764471,104.944277 49.7964901,105.740722 C48.016533,106.537167 45.8579422,106.935508 43.3204812,106.935508 L37.5263441,106.935508 L37.5263441,121.669155 L31.277941,121.669155 L31.277941,121.669155 L31.277941,121.669155 Z" id="path4417" fill="#000000"></path>
                        <path d="M81.6343458,108.073017 L81.6343458,121.669155 L75.3857063,121.669155 L75.3857063,108.073017 C75.1205209,107.655741 74.5903863,106.745687 73.7953026,105.342381 C73.0377986,103.939312 72.1287939,102.289617 71.0685247,100.393296 C70.0460716,98.4593419 68.9288419,96.4113058 67.7168356,94.2496608 C66.5428817,92.0880159 65.425652,90.0589146 64.3653828,88.1628303 C63.3426934,86.2286397 62.433925,84.5600098 61.6386049,83.1569406 C60.881101,81.7536347 60.3698744,80.8435805 60.104689,80.4263047 L67.1486485,80.4263047 C67.4894662,80.9950589 68.0954694,82.0949346 68.9664217,83.7256949 C69.8376103,85.3185855 70.8031029,87.1389306 71.8636084,89.18673 C72.9238776,91.1966598 74.0032912,93.2446959 75.1013765,95.3306017 C76.1994618,97.3786378 77.1273746,99.1421784 77.8848785,100.621224 L78.5097897,102.49861 C78.6612905,102.195179 78.7938833,101.891749 78.9075679,101.588319 C79.0210163,101.247019 79.134701,100.924417 79.2481493,100.621224 C80.0434693,99.1421784 80.9713821,97.3786378 82.0316513,95.3306017 C83.0919205,93.2449326 84.133518,91.1968965 85.1559711,89.18673 C86.2164766,87.1389306 87.1632975,85.3185855 87.9964336,83.7256949 C88.8676223,82.0949346 89.4733891,80.9950589 89.8142068,80.4263047 L96.8012058,80.4263047 L81.6343458,108.073017 L81.6343458,108.073017 L81.6343458,108.073017 Z" id="path4419" fill="#000000"></path>
                        <path d="M132.034948,118.710829 C131.580446,119.051892 130.936863,119.431298 130.10349,119.848574 C129.308407,120.22798 128.361586,120.587978 127.263264,120.929278 C126.164943,121.270578 124.934265,121.554837 123.570757,121.782764 C122.245303,122.010219 120.825308,122.123828 119.3103,122.123828 C116.09144,122.123828 113.194253,121.573771 110.619212,120.474132 C108.081988,119.336387 105.923161,117.819472 104.14344,115.923151 C102.363483,114.026831 100.999976,111.827316 100.053155,109.324134 C99.1063341,106.82119 98.6329236,104.16653 98.6329236,101.360154 C98.6329236,98.250349 99.1822026,95.3871694 100.280524,92.770379 C101.416662,90.1535886 102.950342,87.8970329 104.881799,86.000712 C106.813257,84.1046277 109.066625,82.6255825 111.641902,81.5635765 C114.254995,80.5018072 117.019589,79.9709225 119.935684,79.9709225 C121.033769,79.9709225 122.150999,80.0466618 123.287373,80.1983769 C124.423511,80.3500921 125.48378,80.5586116 126.468417,80.8241723 C127.49087,81.089733 128.380967,81.4120981 129.138234,81.7912676 C129.933554,82.1325675 130.539557,82.4928022 130.956007,82.8722084 C130.653242,83.3271172 130.406965,83.7065234 130.217648,84.0099537 C130.065911,84.3133839 129.895738,84.635749 129.706421,84.9770489 C129.516868,85.2804792 129.308643,85.6407139 129.081274,86.0577531 C128.854141,86.4750289 128.551139,87.0248484 128.172269,87.7074482 C127.67995,87.3661483 127.093092,87.0816528 126.411456,86.8541984 C125.767637,86.626744 125.086002,86.4369226 124.36655,86.2852075 C123.646862,86.1334923 122.908503,86.0196468 122.150999,85.9439076 C121.431547,85.8681683 120.768584,85.830062 120.162817,85.8302987 C117.96641,85.8302987 115.921504,86.2473378 114.027862,87.0816528 C112.172036,87.8780981 110.562725,88.9779738 109.199218,90.381043 C107.83571,91.7462426 106.756533,93.3391333 105.961213,95.1594783 C105.203945,96.9798234 104.825075,98.8761443 104.825075,100.848205 C104.825075,102.782395 105.184801,104.64061 105.904253,106.423322 C106.661757,108.205561 107.68421,109.798451 108.971848,111.201521 C110.297303,112.604826 111.869035,113.7234 113.686808,114.557952 C115.542634,115.392267 117.568632,115.809543 119.765039,115.809543 C120.939229,115.809543 122.07513,115.695697 123.173452,115.468243 C124.271774,115.240552 125.256411,114.975228 126.127363,114.671797 C127.036368,114.368604 127.774963,114.065174 128.342914,113.761507 C128.948681,113.458313 129.308643,113.230622 129.422091,113.078907 L132.034948,118.710829 L132.034948,118.710829 L132.034948,118.710829 Z" id="path4421" fill="#000000"></path>
                        <path d="M135.448798,101.076132 C135.448798,98.2316508 135.99784,95.5391212 137.096162,92.9983067 C138.194484,90.419386 139.690583,88.1628303 141.583989,86.2286397 C143.515447,84.2944491 145.74967,82.7775344 148.286894,81.6776587 C150.824119,80.5399135 153.550897,79.9711592 156.466992,79.9711592 C159.34527,79.9711592 162.052904,80.5399135 164.590128,81.6776587 C167.165405,82.7772977 169.399865,84.2944491 171.29327,86.2286397 C173.224728,88.1628303 174.7395,90.419386 175.837821,92.9983067 C176.974195,95.5391212 177.542146,98.2318875 177.542146,101.076132 C177.542146,103.996353 176.974195,106.726752 175.837821,109.267567 C174.739736,111.808618 173.224728,114.046002 171.29327,115.980193 C169.399629,117.876514 167.165405,119.374494 164.590128,120.474132 C162.052904,121.573771 159.34527,122.123828 156.466992,122.123828 C153.550897,122.123828 150.824119,121.573771 148.286894,120.474132 C145.74967,119.374494 143.515447,117.876277 141.583989,115.980193 C139.690347,114.046002 138.194484,111.808618 137.096162,109.267567 C135.99784,106.726752 135.448798,103.996116 135.448798,101.076132 L135.448798,101.076132 L135.448798,101.076132 Z M141.640713,101.132937 C141.640713,103.218606 142.019583,105.190903 142.776851,107.049117 C143.572171,108.869462 144.651584,110.462353 146.014855,111.827553 C147.378126,113.192752 148.968766,114.273693 150.786303,115.069902 C152.604076,115.866347 154.535534,116.264688 156.580676,116.264688 C158.625819,116.264688 160.538132,115.866347 162.318089,115.069902 C164.135862,114.273693 165.707594,113.192516 167.032813,111.827553 C168.39632,110.462116 169.456589,108.869462 170.214093,107.049117 C171.009413,105.190666 171.406955,103.199671 171.406955,101.076132 C171.406955,98.9902266 171.009413,97.0371012 170.214093,95.2167561 C169.456589,93.3583048 168.39632,91.746716 167.032813,90.3812797 C165.669542,89.0160801 164.078902,87.9351392 162.261365,87.1386939 C160.481408,86.3422486 158.568858,85.9441442 156.523952,85.9441442 C154.479046,85.9441442 152.547588,86.3424852 150.729579,87.1386939 C148.911569,87.9349026 147.321165,89.0160801 145.958131,90.3812797 C144.632676,91.746716 143.572171,93.3583048 142.776851,95.2167561 C142.019347,97.0749708 141.640713,99.047031 141.640713,101.132937 L141.640713,101.132937 Z" id="path4423" fill="#000000"></path>
                        <path d="M222.55348,80.426068 L222.55348,123.545832 C222.023109,122.863468 221.000656,121.76383 219.485885,120.246678 C217.971113,118.729763 216.229208,116.985157 214.259934,115.013097 C212.290661,113.041037 210.188558,110.974303 207.954334,108.812658 C205.757691,106.650776 203.674969,104.602977 201.705695,102.668786 C199.736421,100.696726 198.013425,98.9521203 196.536469,97.4352055 C195.059514,95.8801844 194.074877,94.7805455 193.582558,94.1358153 L192.503145,92.6567702 L192.67379,94.4771152 L192.67379,121.669155 L186.42515,121.669155 L186.42515,78.4921141 C186.841837,79.0229987 187.523236,79.7815745 188.470056,80.7676046 C189.454693,81.7536347 190.590831,82.9103147 191.87847,84.2376447 C193.203924,85.5271051 194.643064,86.9301743 196.195888,88.4473258 C197.786292,89.9642405 199.376932,91.5003268 200.967572,93.0551112 C202.596028,94.6098955 204.186432,96.1459818 205.739019,97.6628966 C207.329423,99.1419417 208.768563,100.526313 210.056437,101.815537 C211.381892,103.104997 212.51803,104.242742 213.464851,105.228772 C214.411672,106.214802 215.074399,106.954443 215.453033,107.447458 L216.53221,109.040112 L216.361801,107.105922 L216.361801,80.426068 L222.55348,80.426068 L222.55348,80.426068 L222.55348,80.426068 Z" id="path4425" fill="#000000"></path>
                        <g id="g4254" transform="translate(230.559653, 85.457478)" fill="#000000">
                            <path d="M0.047432238,19.3857341 L0.047432238,15.1997915 L3.58063468,15.1997915 L3.58063468,13.1655694 C3.58063468,8.81337909 4.59243921,5.5906733 6.61629791,3.49770202 C8.67335918,1.37148118 11.5762121,0.258496454 15.3251064,0.158747822 L15.3251064,4.24519176 C12.7373034,4.37818994 10.8465046,5.20867854 9.65196114,6.73690758 C8.45741768,8.26513661 7.86027076,10.4413568 7.86027076,13.265318 L7.86027076,15.1997915 L14.4293861,15.1997915 L14.4293861,19.3857341 L7.86052041,19.3857341 L7.86052041,36.080505 L3.58088432,36.080505 L3.58088432,19.3857341 L0.047432238,19.3857341 L0.047432238,19.3857341 Z" id="path4428"></path>
                            <path d="M29.3221102,20.1829731 C28.3934369,20.1829731 27.4974669,20.3159713 26.6349491,20.5817176 C25.7724313,20.8142145 24.9927951,21.1797094 24.2957909,21.6779526 C23.6324885,22.1761958 23.101497,22.8074371 22.7033159,23.5716766 C22.3051347,24.3026666 22.106169,25.149905 22.106169,26.1133918 L22.106169,36.080505 L17.8759623,36.080505 L17.8759623,15.2495408 L21.6083801,15.2495408 C21.6745356,16.2795267 21.7244643,17.2265137 21.7574172,18.0902518 C21.8238223,18.9207404 21.8904771,19.751479 21.9566326,20.5819676 C22.3880163,19.6849799 22.9519607,18.8709911 23.6487153,18.1400011 C24.3452203,17.4092612 25.0916539,16.7945196 25.8880162,16.2962764 C26.6843785,15.7980333 27.4637651,15.4157885 28.2269248,15.1500422 C28.9900846,14.8510463 29.6701131,14.7012983 30.26726,14.7012983 L29.3221102,20.1829731 L29.3221102,20.1829731 L29.3221102,20.1829731 Z" id="path4430"></path>
                        </g>
                        <polygon id="path4258" fill="#000000" points="31.2656507 130.450882 157.550659 130.450882 157.550659 163.68431 31.2656507 163.68431"></polygon>
                        <path d="M38.0668781,156.783046 L38.0668781,137.379129 L43.35877,137.379129 C44.3743689,137.379129 45.3008636,137.512619 46.1382541,137.78031 C46.9933709,138.048001 47.7239309,138.449655 48.3296977,138.985037 C48.9531908,139.502431 49.4344008,140.14432 49.772855,140.91189 C50.1115455,141.661235 50.2805363,142.526556 50.2805363,143.508089 C50.2805363,144.043471 50.227121,144.578616 50.1202905,145.113997 C50.01346,145.631391 49.8352516,146.139791 49.5856653,146.639433 C49.3540416,147.121087 49.0512764,147.575996 48.6768969,148.004632 C48.3027537,148.414571 47.8484877,148.762735 47.3138624,149.048414 C48.0264598,150.172195 48.8014537,151.421182 49.6390805,152.795139 C50.476471,154.151108 51.3228428,155.480568 52.1779596,156.783283 L48.6768969,156.783283 C48.3207164,156.229913 47.9463369,155.650271 47.5544674,155.043174 C47.1803243,154.436787 46.7971998,153.83892 46.4053304,153.250047 C46.0311873,152.64366 45.6568078,152.054551 45.2826646,151.483667 C44.9262478,150.894794 44.5877936,150.350655 44.2670657,149.851013 L43.7324405,149.851013 L41.0068443,149.851013 L41.0068443,156.783283 L38.0668781,156.783283 L38.0668781,156.783046 L38.0668781,156.783046 Z M41.0068443,147.094342 L43.6525539,147.094342 C44.3653876,147.094342 44.9621731,146.978366 45.4431468,146.746651 C45.9243568,146.496475 46.2984999,146.193281 46.5658125,145.83636 C46.8508514,145.479439 47.0470225,145.095773 47.153853,144.685834 C47.2786462,144.275422 47.3410428,143.900513 47.3410428,143.56158 C47.3410428,143.222647 47.2786462,142.856495 47.153853,142.464071 C47.0470225,142.053659 46.8508514,141.679223 46.5658125,141.34029 C46.2807736,140.983369 45.8976491,140.688933 45.4166755,140.456981 C44.9534281,140.22503 44.3743689,140.108818 43.6794979,140.108818 L41.0068443,140.108818 L41.0068443,147.094342 L41.0068443,147.094342 L41.0068443,147.094342 Z" id="path4433" fill="#FFFFFF"></path>
                        <polygon id="path4435" fill="#FFFFFF" points="56.3878381 156.783046 56.3878381 137.379129 69.1094138 137.379129 69.1094138 140.028818 59.3275679 140.028818 59.3275679 145.70287 68.0401633 145.70287 68.0401633 148.405814 59.3275679 148.405814 59.3275679 154.079865 69.483557 154.079865 69.483557 156.783283 56.3878381 156.783283"></polygon>
                        <path d="M91.3935021,137.379129 L91.3935021,157.666118 C91.1439158,157.344936 90.6629421,156.827543 89.9503448,156.1137 C89.2377475,155.399858 88.4180833,154.579508 87.4915886,153.651702 C86.5650939,152.723896 85.5762026,151.751357 84.5249147,150.734322 C83.4915895,149.717286 82.5114432,148.753977 81.5851849,147.843687 C80.6586902,146.915881 79.8480073,146.095294 79.1531363,145.381688 C78.4582653,144.649858 77.9950179,144.132701 77.7633943,143.829271 L77.255713,143.133653 L77.3358359,143.989743 L77.3358359,156.783283 L74.396106,156.783283 L74.396106,136.469074 C74.5920407,136.71925 74.913005,137.075935 75.3580533,137.539601 C75.821537,138.00374 76.3559259,138.54788 76.9616927,139.172255 C77.5854222,139.778642 78.2623306,140.438993 78.9928905,141.152599 C79.7411768,141.866441 80.4896994,142.588804 81.2379857,143.320634 C82.0039983,144.051991 82.7522846,144.774591 83.4828446,145.488197 C84.2313672,146.184287 84.9082756,146.835171 85.5142787,147.442269 C86.1377718,148.048656 86.6721607,148.584038 87.1176818,149.048177 C87.5632028,149.511843 87.8749494,149.860007 88.0531578,150.091958 L88.5608391,150.841303 L88.4804799,149.931012 L88.4804799,137.379129 L91.3935021,137.379129 L91.3935021,137.379129 L91.3935021,137.379129 Z" id="path4437" fill="#FFFFFF"></path>
                        <path d="M114.673336,137.379129 L114.673336,157.666118 C114.423749,157.344936 113.942776,156.827543 113.230178,156.1137 C112.517581,155.399858 111.697917,154.579508 110.771422,153.651702 C109.844928,152.723896 108.856036,151.751357 107.804748,150.734322 C106.771423,149.717286 105.791277,148.753977 104.865019,147.843687 C103.938524,146.915881 103.127841,146.095294 102.43297,145.381688 C101.738099,144.649858 101.274852,144.132701 101.043228,143.829271 L100.535547,143.133653 L100.61567,143.989743 L100.61567,156.783283 L97.6759397,156.783283 L97.6759397,136.469074 C97.8718744,136.71925 98.1928387,137.075935 98.637887,137.539601 C99.1013707,138.00374 99.6357596,138.54788 100.241526,139.172255 C100.865256,139.778642 101.542164,140.438993 102.272724,141.152599 C103.021011,141.866441 103.769533,142.588804 104.517819,143.320634 C105.283832,144.051991 106.032118,144.774591 106.762678,145.488197 C107.511201,146.184287 108.188109,146.835171 108.794112,147.442269 C109.417606,148.048656 109.951994,148.584038 110.397515,149.048177 C110.843037,149.511843 111.154783,149.860007 111.332992,150.091958 L111.840673,150.841303 L111.760314,149.931012 L111.760314,137.379129 L114.673336,137.379129 L114.673336,137.379129 L114.673336,137.379129 Z" id="path4439" fill="#FFFFFF"></path>
                        <polygon id="path4441" fill="#FFFFFF" points="120.955301 156.783046 120.955301 137.379129 133.676876 137.379129 133.676876 140.028818 123.895031 140.028818 123.895031 145.70287 132.607626 145.70287 132.607626 148.405814 123.895031 148.405814 123.895031 154.079865 134.05102 154.079865 134.05102 156.783283 120.955301 156.783283"></polygon>
                        <path d="M150.054325,138.449655 L149.012018,140.831181 C148.281458,140.563963 147.550898,140.349526 146.820575,140.189054 C146.107741,140.028581 145.421851,139.948109 144.762669,139.948109 C143.64024,139.948109 142.740453,140.18006 142.063308,140.643726 C141.404126,141.107865 141.074417,141.696265 141.074417,142.410107 C141.074417,143.016967 141.315022,143.507616 141.795995,143.882525 C142.276969,144.239446 142.873991,144.569385 143.586588,144.872815 C144.299422,145.158021 145.074416,145.452457 145.911806,145.755651 C146.749197,146.04133 147.524191,146.415765 148.237024,146.879905 C148.949858,147.344044 149.546643,147.932443 150.027617,148.646286 C150.508591,149.341903 150.749432,150.243437 150.749432,151.349703 C150.749432,152.205793 150.58895,152.981883 150.268222,153.678211 C149.965457,154.35584 149.502209,154.944949 148.87848,155.444592 C148.272713,155.944234 147.506464,156.327427 146.57997,156.595118 C145.671201,156.862809 144.602187,156.996772 143.372927,156.996772 C142.588952,156.996772 141.876355,156.943045 141.234662,156.835827 C140.611169,156.729082 140.040855,156.594881 139.524429,156.434645 C139.025493,156.256185 138.579972,156.068967 138.188102,155.872518 C137.813959,155.676543 137.493467,155.498082 137.226155,155.337137 L138.509066,152.794665 C139.2219,153.205077 140.01462,153.535253 140.887463,153.784956 C141.760543,154.035132 142.553499,154.159865 143.266097,154.159865 C143.622513,154.159865 144.058817,154.115131 144.575716,154.025901 C145.110105,153.936671 145.617786,153.784956 146.098996,153.570992 C146.57997,153.339041 146.990038,153.035611 147.328256,152.661175 C147.684673,152.286266 147.862881,151.813369 147.862881,151.242484 C147.862881,150.725091 147.720362,150.287934 147.435086,149.931012 C147.167774,149.556577 146.802612,149.235395 146.339365,148.967704 C145.893844,148.682025 145.377181,148.432322 144.78914,148.218359 C144.219063,147.986408 143.631022,147.75422 143.025255,147.522742 C142.419488,147.272565 141.822467,147.013869 141.234426,146.746651 C140.664348,146.47896 140.147686,146.157779 139.684438,145.782869 C139.238917,145.390446 138.873519,144.944294 138.58848,144.444652 C138.321168,143.927258 138.187629,143.312114 138.187629,142.598272 C138.187629,141.938157 138.321168,141.286799 138.58848,140.644199 C138.855793,140.002073 139.256644,139.431188 139.791269,138.931546 C140.325894,138.431904 140.985076,138.030486 141.768815,137.727292 C142.570753,137.423625 143.497011,137.27191 144.548535,137.27191 C145.189991,137.27191 145.813721,137.325638 146.419251,137.432856 C147.042981,137.539601 147.604313,137.664571 148.103013,137.807292 C148.60195,137.932025 149.020763,138.057468 149.358981,138.182201 C149.715634,138.306934 149.947494,138.396164 150.054325,138.449655 L150.054325,138.449655 L150.054325,138.449655 Z" id="path4443" fill="#FFFFFF"></path>
                        <path d="M177.059754,158.927649 L188.582796,158.927649 L188.582796,163.316501 L166.225911,163.316501 C168.261364,161.245507 170.23111,159.2396 172.135151,157.300439 C174.072045,155.360805 175.779206,153.486733 177.256634,151.678695 C178.734063,149.837522 179.915816,148.078478 180.802131,146.401801 C181.721535,144.692225 182.181001,143.048447 182.181001,141.470704 C182.181001,140.319704 181.984121,139.333674 181.590124,138.511667 C181.196128,137.656997 180.703809,136.96635 180.112696,136.440672 C179.554672,135.881859 178.930943,135.470737 178.241508,135.207779 C177.552073,134.944822 176.912035,134.812989 176.320922,134.812989 C175.106316,134.812989 174.104898,135.026952 173.317141,135.454169 C172.562001,135.881859 171.954579,136.4073 171.495114,137.032385 C171.035648,137.624098 170.707121,138.24871 170.51024,138.905984 C170.346213,139.563732 170.263963,140.138877 170.263963,140.632128 C170.263963,141.749992 170.42799,142.719691 170.756281,143.541698 C171.117425,144.363706 171.593672,145.103347 172.184549,145.760621 L169.525367,148.57173 C168.934254,148.210312 168.392775,147.71706 167.90022,147.092448 C167.440754,146.4347 167.046757,145.744526 166.718466,145.02098 C166.389939,144.265245 166.143898,143.508799 165.979634,142.75259 C165.815607,141.963482 165.733593,141.25674 165.733593,140.632128 C165.733593,139.316869 165.963326,138.051314 166.423028,136.83499 C166.882494,135.586002 167.55562,134.484233 168.441936,133.531102 C169.36134,132.577498 170.477388,131.821526 171.790552,131.262712 C173.103716,130.703899 174.613761,130.424137 176.320922,130.424137 C177.896908,130.424137 179.324939,130.703899 180.605251,131.262712 C181.885563,131.821526 182.968994,132.594066 183.855309,133.580096 C184.774713,134.5337 185.480457,135.651564 185.972775,136.933451 C186.498183,138.182911 186.760768,139.497697 186.760768,140.878518 C186.760768,142.489633 186.498183,144.067849 185.972775,145.612693 C185.447604,147.125347 184.725316,148.637292 183.806148,150.149946 C182.919597,151.629228 181.885563,153.092415 180.703809,154.538798 C179.554436,155.98518 178.340066,157.448368 177.059754,158.927649 L177.059754,158.927649 L177.059754,158.927649 Z" id="path4446" fill="#000000"></path>
                        <path d="M192.717751,146.895053 C192.717751,144.297907 193.06235,141.98005 193.751785,139.941955 C194.474073,137.870487 195.426094,136.128248 196.608083,134.714528 C197.82269,133.300808 199.250957,132.232648 200.892176,131.509102 C202.533631,130.785555 204.306498,130.424137 206.210539,130.424137 C208.213375,130.424137 210.035402,130.835022 211.676621,131.65703 C213.318077,132.479037 214.713491,133.629563 215.862392,135.108845 C217.044382,136.555701 217.947005,138.314271 218.570971,140.385739 C219.227317,142.423835 219.539536,144.692225 219.506447,147.190909 C219.473594,149.788055 219.112687,152.105912 218.423252,154.144007 C217.733817,156.182576 216.781796,157.925051 215.566954,159.371434 C214.352348,160.785154 212.92408,161.870119 211.282861,162.626327 C209.674022,163.3494 207.917936,163.710819 206.013659,163.710819 C204.175323,163.710819 202.451618,163.333069 200.843015,162.57686 C199.234176,161.820651 197.82269,160.735687 196.608083,159.321967 C195.393241,157.875584 194.44122,156.116541 193.751785,154.045546 C193.06235,151.974551 192.717751,149.591133 192.717751,146.895053 L192.717751,146.895053 L192.717751,146.895053 Z M197.297518,147.042981 C197.264429,148.719658 197.47809,150.297874 197.937556,151.777156 C198.397022,153.256438 199.020988,154.554892 199.808981,155.672756 C200.596738,156.79062 201.516142,157.678189 202.566484,158.335937 C203.649916,158.993211 204.798816,159.321967 206.013659,159.321967 C207.228501,159.321967 208.377402,159.010016 209.460834,158.384931 C210.544029,157.760319 211.479741,156.889554 212.267735,155.77169 C213.088344,154.653827 213.728618,153.354899 214.188084,151.875617 C214.680639,150.363436 214.926916,148.769125 214.926916,147.092448 C214.926916,145.87565 214.779197,144.561101 214.483522,143.147381 C214.221173,141.700525 213.744926,140.369171 213.055491,139.152847 C212.366056,137.903386 211.463433,136.867889 210.347149,136.045881 C209.230865,135.223874 207.851995,134.812989 206.210539,134.812989 C204.503378,134.812989 203.075347,135.240679 201.926447,136.095349 C200.810162,136.950018 199.907303,138.018415 199.217868,139.300775 C198.528433,140.549762 198.036114,141.881589 197.740676,143.295309 C197.445237,144.709029 197.297518,145.958016 197.297518,147.042981 L197.297518,147.042981 Z" id="path4448" fill="#000000"></path>
                        <polygon id="path4450" fill="#000000" points="224.168464 135.207779 224.168464 130.818928 231.899732 130.818928 231.899732 163.316501 227.319964 163.316501 227.319964 135.207779"></polygon>
                        <path d="M243.55513,152.812653 C243.55513,153.700222 243.719157,154.538798 244.047448,155.327906 C244.375975,156.116541 244.819133,156.807188 245.377157,157.3989 C245.935181,157.990613 246.592,158.467297 247.346904,158.829188 C248.101808,159.157944 248.922654,159.321967 249.808969,159.321967 C250.69552,159.321967 251.532674,159.157944 252.320667,158.829188 C253.108424,158.467297 253.797859,157.990613 254.388736,157.3989 C254.979613,156.807188 255.439315,156.116541 255.767606,155.327906 C256.12875,154.538798 256.309322,153.700222 256.309322,152.812653 C256.309322,151.925084 256.12875,151.086509 255.767606,150.297874 C255.439315,149.508766 254.979613,148.818119 254.388736,148.226406 C253.797859,147.634694 253.108424,147.174341 252.320667,146.845586 C251.532674,146.51683 250.69552,146.352807 249.808969,146.352807 C248.955506,146.352807 248.134897,146.51683 247.346904,146.845586 C246.592,147.174341 245.935181,147.634694 245.377157,148.226406 C244.819133,148.818119 244.375975,149.508766 244.047448,150.297874 C243.719393,151.086509 243.55513,151.925084 243.55513,152.812653 L243.55513,152.812653 Z M238.926438,152.812653 C238.926438,151.070414 239.189023,149.4264 239.714194,147.881083 C240.272218,146.30334 240.994506,144.840153 241.881058,143.492231 C242.800462,142.11141 243.817951,140.845618 244.934236,139.695092 C246.083136,138.511667 247.248582,137.426702 248.430572,136.440672 C249.645178,135.421269 250.827167,134.501038 251.976068,133.67903 C253.124969,132.857023 254.159239,132.117382 255.078407,131.459634 C255.537873,132.018448 255.997811,132.594066 256.457277,133.185779 C256.949832,133.777491 257.425842,134.35311 257.885308,134.911923 C256.933524,135.569198 255.915561,136.276176 254.83213,137.032385 C253.748935,137.78812 252.698356,138.544566 251.68063,139.300775 C250.662904,140.056984 249.760044,140.780057 248.972287,141.470704 C248.184294,142.160877 247.609726,142.736496 247.248582,143.196375 C247.577109,142.834957 247.954325,142.5391 248.381174,142.308806 C248.808024,142.078511 249.284034,141.963482 249.809205,141.963482 C251.286633,141.963482 252.698356,142.243244 254.044373,142.802057 C255.390154,143.360871 256.555835,144.133411 257.540709,145.119915 C258.558435,146.073045 259.362736,147.207477 259.953613,148.522263 C260.54449,149.837522 260.840164,151.251005 260.840164,152.763186 C260.840164,154.275841 260.54449,155.705655 259.953613,157.053577 C259.362736,158.368836 258.558435,159.519362 257.540709,160.505866 C256.555835,161.491896 255.390154,162.281004 254.044373,162.872717 C252.731209,163.43153 251.335794,163.711292 249.858602,163.711292 C248.611143,163.711292 247.34714,163.497329 246.066828,163.070112 C244.786517,162.642422 243.604527,161.985147 242.521095,161.097578 C241.470753,160.176637 240.600746,159.042678 239.911311,157.694757 C239.254492,156.313936 238.926438,154.686726 238.926438,152.812653 L238.926438,152.812653 L238.926438,152.812653 Z" id="path4452" fill="#000000"></path>
                        <g id="g4301" transform="translate(135.657448, 80.352927)">
                            <path d="M41.4507109,20.4976391 C41.4507109,26.644351 39.4958544,31.6474005 35.586614,35.507971 C31.7168442,39.330672 26.820367,41.2421408 20.8971824,41.2421408 C15.0134684,41.2421408 10.0973741,39.3119738 6.14866314,35.45164 C2.1999522,31.5539099 0.225478556,26.5506237 0.225478556,20.4415447 C0.225478556,14.2950696 2.25903987,9.38551068 6.32616251,5.71263141 C10.3935215,2.00235589 15.2505281,0.146981443 20.8969461,0.146981443 C26.5438367,0.146981443 31.3809899,2.0021192 35.4086419,5.71263141 C39.4367667,9.38551068 41.4507109,14.3137677 41.4507109,20.4976391 L41.4507109,20.4976391 L41.4507109,20.4976391 Z" id="path4303" fill="#000000"></path>
                            <g id="g4305" transform="translate(3.737272, 3.134056)" fill="#FFFFFF">
                                <path d="M16.8965608,0.255600833 C15.4865921,0.262144831 14.1408177,0.382631368 12.9561057,0.592424221 C9.46693283,1.20986961 8.83344634,2.50173165 8.83344634,4.88451653 L8.83344634,8.03140932 L17.078765,8.03140932 L17.078765,9.08037358 L8.83344634,9.08037358 L5.73904934,9.08037358 C3.34271755,9.08037358 1.24429355,10.5227476 0.588127628,13.2666071 C-0.169134743,16.4115752 -0.202577294,18.3743894 0.588127628,21.6583212 C1.17433327,24.1026967 2.57392327,25.8445547 4.97025505,25.8445547 L7.80518398,25.8445547 L7.80518398,22.0725177 C7.80518398,19.3467504 10.1600009,16.9431787 12.9557213,16.9431787 L21.1918145,16.9431787 C23.4839746,16.9431787 25.3144738,15.0531184 25.3144738,12.7473217 L25.3144738,4.88490147 C25.3144738,2.64723935 23.4293902,0.966201945 21.1918145,0.592809162 C19.775311,0.356070438 18.3057607,0.249056836 16.8965608,0.255600833 L16.8965608,0.255600833 Z M12.4371695,2.786588 C13.2889936,2.786588 13.9839836,3.49449453 13.9839836,4.36484616 C13.9839836,5.23211826 13.2886092,5.93348079 12.4371695,5.93348079 C11.5822703,5.93348079 10.8903554,5.23211826 10.8903554,4.36484616 C10.8903554,3.49410958 11.5826547,2.786588 12.4371695,2.786588 L12.4371695,2.786588 Z" id="path4307"></path>
                                <path d="M26.3427362,9.08037358 L26.3427362,12.7469367 C26.3427362,15.5893412 23.9360257,17.9821345 21.1921989,17.9821345 L12.9561057,17.9821345 C10.7004633,17.9821345 8.83344634,19.9156932 8.83344634,22.1779916 L8.83344634,30.0404118 C8.83344634,32.2780739 10.7765739,33.5941872 12.9561057,34.2358839 C15.5661623,35.0046111 18.0693565,35.1431899 21.1921989,34.2358839 C23.267559,33.6342211 25.3148582,32.4228117 25.3148582,30.0404118 L25.3148582,26.893519 L17.0791494,26.893519 L17.0791494,25.8441698 L25.3148582,25.8441698 L29.4375176,25.8441698 C31.8338494,25.8441698 32.7271883,24.1704463 33.5605613,21.6579363 C34.4212265,19.0715176 34.3850932,16.5844137 33.5605613,13.2662222 C32.9682053,10.8772782 31.8373089,9.07998864 29.4375176,9.07998864 L26.3427362,9.07998864 L26.3427362,9.08037358 Z M21.7107506,28.9914475 C22.5656499,28.9914475 23.2575647,29.6928101 23.2575647,30.5600822 C23.2575647,31.4304338 22.5652655,32.1383403 21.7107506,32.1383403 C20.8589265,32.1383403 20.1635521,31.4304338 20.1635521,30.5600822 C20.1635521,29.6928101 20.8593109,28.9914475 21.7107506,28.9914475 L21.7107506,28.9914475 Z" id="path4309"></path>
                            </g>
                            <g id="g4311" transform="translate(3.737272, 3.134056)" fill="#FFFFFF">
                                <path d="M16.8965608,0.255600833 C15.4865921,0.262144831 14.1408177,0.382631368 12.9561057,0.592424221 C9.46693283,1.20986961 8.83344634,2.50173165 8.83344634,4.88451653 L8.83344634,8.03140932 L17.078765,8.03140932 L17.078765,9.08037358 L8.83344634,9.08037358 L5.73904934,9.08037358 C3.34271755,9.08037358 1.24429355,10.5227476 0.588127628,13.2666071 C-0.169134743,16.4115752 -0.202577294,18.3743894 0.588127628,21.6583212 C1.17433327,24.1026967 2.57392327,25.8445547 4.97025505,25.8445547 L7.80518398,25.8445547 L7.80518398,22.0725177 C7.80518398,19.3467504 10.1600009,16.9431787 12.9557213,16.9431787 L21.1918145,16.9431787 C23.4839746,16.9431787 25.3144738,15.0531184 25.3144738,12.7473217 L25.3144738,4.88490147 C25.3144738,2.64723935 23.4293902,0.966201945 21.1918145,0.592809162 C19.775311,0.356070438 18.3057607,0.249056836 16.8965608,0.255600833 L16.8965608,0.255600833 Z M12.4371695,2.786588 C13.2889936,2.786588 13.9839836,3.49449453 13.9839836,4.36484616 C13.9839836,5.23211826 13.2886092,5.93348079 12.4371695,5.93348079 C11.5822703,5.93348079 10.8903554,5.23211826 10.8903554,4.36484616 C10.8903554,3.49410958 11.5826547,2.786588 12.4371695,2.786588 L12.4371695,2.786588 Z" id="path4313"></path>
                                <path d="M26.3427362,9.08037358 L26.3427362,12.7469367 C26.3427362,15.5893412 23.9360257,17.9821345 21.1921989,17.9821345 L12.9561057,17.9821345 C10.7004633,17.9821345 8.83344634,19.9156932 8.83344634,22.1779916 L8.83344634,30.0404118 C8.83344634,32.2780739 10.7765739,33.5941872 12.9561057,34.2358839 C15.5661623,35.0046111 18.0693565,35.1431899 21.1921989,34.2358839 C23.267559,33.6342211 25.3148582,32.4228117 25.3148582,30.0404118 L25.3148582,26.893519 L17.0791494,26.893519 L17.0791494,25.8441698 L25.3148582,25.8441698 L29.4375176,25.8441698 C31.8338494,25.8441698 32.7271883,24.1704463 33.5605613,21.6579363 C34.4212265,19.0715176 34.3850932,16.5844137 33.5605613,13.2662222 C32.9682053,10.8772782 31.8373089,9.07998864 29.4375176,9.07998864 L26.3427362,9.07998864 L26.3427362,9.08037358 Z M21.7107506,28.9914475 C22.5656499,28.9914475 23.2575647,29.6928101 23.2575647,30.5600822 C23.2575647,31.4304338 22.5652655,32.1383403 21.7107506,32.1383403 C20.8589265,32.1383403 20.1635521,31.4304338 20.1635521,30.5600822 C20.1635521,29.6928101 20.8593109,28.9914475 21.7107506,28.9914475 L21.7107506,28.9914475 Z" id="path4315"></path>
                            </g>
                        </g>
                        <g id="g4360" transform="translate(30.969338, 29.433808)" fill="#000000">
                            <g id="g4327" transform="translate(92.856536, 0.007195)">
                                <path d="M21.2368184,0.0790528211 C26.8232032,7.01842306 11.2020772,9.78006473 19.6241976,16.3483127 C23.216019,18.5785964 31.6064684,13.7506938 24.2353995,7.81699857 C23.2829063,7.30907236 27.5504543,3.80116259 21.2368184,0.0790528211 L21.2368184,0.0790528211 L21.2368184,0.0790528211 Z" id="path4329"></path>
                                <path d="M30.5551806,16.5310336 C29.1578753,16.6628672 27.8109127,17.5265311 26.539346,19.7300694 C24.9446879,23.424487 31.9576856,29.8322625 36.6771361,21.9546725 C37.0110996,20.9932577 41.6955702,24.0722941 44.2871555,17.6214419 C39.8444717,22.2952624 35.3003933,16.7161214 31.1748921,16.5310336 C30.9730486,16.5220396 30.7551333,16.5120988 30.5551806,16.5310336 L30.5551806,16.5310336 Z" id="path4331"></path>
                                <path d="M13.2786543,16.5975421 C9.15315309,16.7819198 4.60789301,22.3828359 0.166154534,17.7080686 C2.75632172,24.1593942 7.49113505,21.0813045 7.82462587,22.0427194 C12.5428947,29.9212561 19.5074404,23.5149007 17.9137277,19.8200097 C16.46088,17.3014436 14.8929295,16.5253532 13.2786543,16.5975421 L13.2786543,16.5975421 L13.2786543,16.5975421 Z" id="path4333"></path>
                            </g>
                            <polygon id="path4335" points="0.17182695 33.4765029 229.994272 33.4765029 229.994272 38.3931623 0.17182695 38.3931623"></polygon>
                        </g>
                        <g id="g4367" transform="translate(145.969338, 193.355969) scale(1, -1) translate(-145.969338, -193.355969) translate(30.969338, 173.855969)" fill="#000000">
                            <g id="g4369" transform="translate(92.856536, 0.007195)">
                                <path d="M21.2368184,0.16591625 C26.8232032,7.10504981 11.2020772,9.86669147 19.6241976,16.4351762 C23.216019,18.6656965 31.6064684,13.8375573 24.2353995,7.903862 C23.2829063,7.39593579 27.5504543,3.88755265 21.2368184,0.16591625 L21.2368184,0.16591625 L21.2368184,0.16591625 Z" id="path4371"></path>
                                <path d="M30.5551806,16.6176604 C29.1578753,16.749494 27.8109127,17.6129212 26.539346,19.8166961 C24.9446879,23.5111137 31.9576856,29.9188892 36.6771361,22.041536 C37.0110996,21.0801211 41.6955702,24.1591575 44.2871555,17.7080686 C39.8444717,22.3821258 35.3003933,16.8025114 31.1748921,16.6176604 C30.9730486,16.6084297 30.7551333,16.5987256 30.5551806,16.6176604 L30.5551806,16.6176604 Z" id="path4373"></path>
                                <path d="M13.2786543,16.6844056 C9.15315309,16.8683099 4.60789301,22.4696993 0.166154534,17.7946953 C2.75632172,24.2462576 7.49113505,21.1679313 7.82462587,22.1293461 C12.5428947,30.0078828 19.5074404,23.6012907 17.9137277,19.9066364 C16.46088,17.3878337 14.8929295,16.6122166 13.2786543,16.6844056 L13.2786543,16.6844056 L13.2786543,16.6844056 Z" id="path4375"></path>
                            </g>
                            <polygon id="path4377" points="0.17182695 33.5631296 229.994272 33.5631296 229.994272 38.4797891 0.17182695 38.4797891"></polygon>
                        </g>
                    </g>
                </g>
            </g>
        </g>
    </g>
</svg>