<?xml version="1.0" encoding="UTF-8" standalone="no"?>
<svg width="257px" height="96px" viewBox="0 0 257 96" version="1.1" xmlns="http://www.w3.org/2000/svg" xmlns:xlink="http://www.w3.org/1999/xlink">
    <!-- Generator: Sketch 40.2 (33826) - http://www.bohemiancoding.com/sketch -->
    <title>Fill 1</title>
    <desc>Created with Sketch.</desc>
    <defs></defs>
    <g id="Page-1" stroke="none" stroke-width="1" fill="none" fill-rule="evenodd">
        <g id="Tablet-Portrait-Copy" transform="translate(-540.000000, -392.000000)" fill="#050405">
            <path d="M706.295383,422.114249 L706.293728,422.114249 L706.293728,422.115823 C706.293728,424.760626 704.038486,426.906529 701.255227,426.906529 C698.472795,426.906529 696.216725,424.760626 696.216725,422.115823 L696.216725,422.114249 L696.216725,415.412139 C696.216725,412.765761 698.472795,410.621432 701.255227,410.621432 C704.038486,410.621432 706.293728,412.765761 706.293728,415.412139 L706.295383,415.412139 L706.295383,422.114249 Z M640.784103,422.114249 L640.782448,422.114249 L640.782448,422.115823 C640.782448,424.760626 638.527205,426.906529 635.744773,426.906529 C632.961514,426.906529 630.706272,424.760626 630.706272,422.115823 L630.706272,422.114249 L630.706272,415.412139 C630.706272,412.765761 632.961514,410.621432 635.744773,410.621432 C638.527205,410.621432 640.782448,412.765761 640.782448,415.412139 L640.784103,415.412139 L640.784103,422.114249 Z M786.922169,444.711149 C781.356479,444.711149 776.844338,449.001381 776.844338,454.293349 L776.844338,462.835254 L776.842683,462.835254 C776.842683,466.804427 773.460233,470.020527 769.285758,470.020527 C765.111283,470.020527 761.727178,466.804427 761.727178,462.835254 L761.727178,437.526663 L761.727178,437.524302 L761.727178,437.519581 L761.725523,401.588495 C761.725523,401.586134 761.727178,401.584561 761.727178,401.5822 C761.727178,396.290232 757.215037,392 751.649347,392 C746.083656,392 741.571516,396.290232 741.571516,401.5822 L741.571516,462.834467 L741.570688,462.834467 C741.570688,466.80364 738.188238,470.018953 734.013763,470.018953 C729.839289,470.018953 726.454356,466.80364 726.454356,462.827385 L726.451873,415.949598 L726.443597,415.955893 C726.441942,402.727941 715.163246,392.006295 701.251916,392.006295 C687.339759,392.006295 676.061063,402.727941 676.057753,415.955893 L676.059408,462.834467 L676.057753,462.834467 C676.057753,466.80364 672.675302,470.018953 668.500828,470.018953 C664.326353,470.018953 660.942247,466.80364 660.942247,462.834467 L660.942247,415.955893 L660.935627,415.955893 C660.932316,402.727941 649.655275,392.006295 635.742291,392.006295 C621.830133,392.006295 610.551438,402.727941 610.549782,415.955893 L610.551438,462.834467 L610.549782,462.834467 C610.549782,466.80364 607.166505,470.018953 602.992857,470.018953 C598.818383,470.018953 595.435105,466.80364 595.434277,462.834467 L595.430967,401.594004 L595.430967,401.587708 C595.430967,396.29574 590.920482,392.006295 585.354791,392.006295 C579.789101,392.006295 575.27696,396.29574 575.27696,401.587708 L575.27696,401.588495 L575.274477,401.588495 L575.274477,420.770994 L575.27365,420.770994 C575.263718,424.733085 571.884579,427.940529 567.716725,427.940529 C563.548043,427.940529 560.168904,424.733085 560.158972,420.770994 L560.158145,420.770994 L560.158145,420.767059 L560.158145,420.753682 L560.158145,420.740304 L560.158145,401.588495 L560.154007,401.588495 C560.144903,396.304396 555.637728,392.022033 550.077003,392.022033 C544.51214,392.022033 540.000828,396.311478 540.000828,401.603446 L540,401.603446 L540,418.358329 C540.001655,432.909077 552.408386,444.704854 567.712587,444.704854 C570.336117,444.704854 572.871092,444.350744 575.27696,443.702331 L575.27696,461.484917 C575.27696,476.037239 587.683691,487.83459 602.989547,487.83459 C618.231677,487.83459 630.595372,476.134029 630.697168,461.664332 C630.697996,461.630495 630.701306,451.43608 630.702134,444.711149 L630.706272,444.711149 C630.71041,442.068706 632.964825,439.925951 635.744773,439.925951 C638.524722,439.925951 640.778309,442.068706 640.782448,444.711149 L640.785758,444.711149 C640.785758,451.377061 640.784103,461.466818 640.784103,461.484917 C640.784103,476.037239 653.191661,487.83459 668.49669,487.83459 C683.738819,487.83459 696.101687,476.134029 696.205138,461.664332 C696.205138,461.630495 696.207621,451.43608 696.210932,444.711149 L696.216725,444.711149 C696.220035,442.068706 698.473623,439.925951 701.254399,439.925951 C704.034348,439.925951 706.287935,442.068706 706.292901,444.711149 L706.297866,444.711149 C706.297866,451.377061 706.296211,461.466818 706.296211,461.484917 C706.296211,476.037239 718.704597,487.83459 734.008798,487.83459 C740.709972,487.83459 746.85168,485.571437 751.642726,481.808435 C756.435427,485.572224 762.579618,487.83459 769.28162,487.83459 C784.52375,487.83459 796.887445,476.134816 796.990069,461.665119 C796.991724,461.606888 796.998345,454.299644 796.998345,454.299644 C796.998345,454.297283 797,454.294923 797,454.293349 C797,449.001381 792.48786,444.711149 786.922169,444.711149 L786.922169,444.711149 Z" id="Fill-1"></path>
        </g>
    </g>
</svg>